<?xml version="1.0" encoding="UTF-8" standalone="no"?>
<svg width="445px" height="190px" viewBox="0 0 445 190" version="1.1" xmlns="http://www.w3.org/2000/svg" xmlns:xlink="http://www.w3.org/1999/xlink">
    <!-- Generator: Sketch 40.3 (33839) - http://www.bohemiancoding.com/sketch -->
    <title>jaune</title>
    <desc>Created with Sketch.</desc>
    <defs></defs>
    <g id="Page-1" stroke="none" stroke-width="1" fill="none" fill-rule="evenodd">
        <g id="Desktop" transform="translate(-579.000000, 0.000000)" fill="#F8E81C">
            <path d="M687.739789,-140.256522 C670.442914,-59.9869907 579.940122,44.2824093 579.940122,81.5831905 C579.940122,118.883972 587.652344,146.550781 661.25,179.183594 C734.847656,211.816406 743.144531,125.847656 817.746094,135.476563 C892.347656,145.105469 913.796875,169.8125 1003.69531,169.8125 C1093.59375,169.8125 1117.85547,120.363281 1151.19141,96.3984375 C1184.52734,72.4335938 1227.42188,-188.300781 1227.42188,-188.300781 C1227.42188,-188.300781 705.036664,-220.526053 687.739789,-140.256522 Z" id="Path-2"></path>
            <path d="M856.085937,171.183594 C826.15625,162.777344 774.029946,158.332031 799.191406,179.59375 C824.352866,200.855469 886.015625,179.589844 856.085937,171.183594 Z" id="Path-4"></path>
        </g>
    </g>
</svg>