<?xml version="1.0" encoding="UTF-8" standalone="no"?>
<svg width="122px" height="79px" viewBox="0 0 122 79" version="1.1" xmlns="http://www.w3.org/2000/svg" xmlns:xlink="http://www.w3.org/1999/xlink">
    <!-- Generator: Sketch 40.3 (33839) - http://www.bohemiancoding.com/sketch -->
    <title>mask-rose</title>
    <desc>Created with Sketch.</desc>
    <defs></defs>
    <g id="Page-1" stroke="none" stroke-width="1" fill="none" fill-rule="evenodd">
        <g id="Artboard" transform="translate(-338.000000, -49.000000)" fill="#D8D8D8">
            <path d="M397.443505,53.0253769 C384.079949,46.9191982 369.938195,49.095472 362.062285,61.4232174 C354.186374,73.7509629 356.587326,80.0758175 352.137564,88.6494484 C344.881128,102.630873 327.78293,108.064216 349.338731,120.202734 C354.295469,122.993976 359.866656,124.613952 365.36963,126.055327 C386.052462,131.472713 393.224143,120.527844 413.62736,118.395434 C424.210935,117.289308 437.719534,130.074837 448.055957,126.055327 C457.982723,122.19512 462.852472,99.8447802 455.447506,86.1055428 C448.04254,72.3663054 435.357896,78.3181859 423.132122,71.0930108 C410.906347,63.8678356 410.80706,59.1315556 397.443505,53.0253769 Z" id="mask-rose"></path>
        </g>
    </g>
</svg>