<?xml version="1.0" encoding="UTF-8" standalone="no"?>
<svg width="445px" height="190px" viewBox="0 0 445 190" version="1.1" xmlns="http://www.w3.org/2000/svg" xmlns:xlink="http://www.w3.org/1999/xlink">
    <!-- Generator: Sketch 40.3 (33839) - http://www.bohemiancoding.com/sketch -->
    <title>rose</title>
    <desc>Created with Sketch.</desc>
    <defs></defs>
    <g id="Page-1" stroke="none" stroke-width="1" fill="none" fill-rule="evenodd">
        <g id="Desktop" fill="#F58795">
            <path d="M-130.0625,186.707031 C1.32421875,141.515625 15.4023438,191.797247 94.6679688,184.484375 C173.933594,177.171503 280.835938,127.611993 348.027344,145.960938 C415.21875,164.309882 456.746094,98.0625 441.667969,68.3945312 C426.589844,38.7265625 333.992188,5.90625 373.253906,-33.875 C412.515625,-73.65625 -148.027344,-85.5078125 -148.027344,-85.5078125 C-148.027344,-85.5078125 -261.449219,231.898438 -130.0625,186.707031 Z" id="Path"></path>
            <path d="M418.296875,-19.9453125 C397.777344,12.9453125 412.074219,34.6914062 426.667969,26.28125 C441.261719,17.8710938 465.710938,-25.3554687 465.710938,-25.3554687 C465.710938,-25.3554687 438.816406,-52.8359375 418.296875,-19.9453125 Z" id="Path-3"></path>
        </g>
    </g>
</svg>